<mxfile host="app.diagrams.net" modified="2023-09-07T21:22:02.385Z" agent="Mozilla/5.0 (Windows NT 10.0; Win64; x64; rv:109.0) Gecko/20100101 Firefox/117.0" etag="X4kMSPfdYAqZteATozVu" version="21.5.2" type="github">
  <diagram name="Página-1" id="xUCajK1P0up36YbQ_nXD">
    <mxGraphModel dx="1100" dy="588" grid="1" gridSize="10" guides="1" tooltips="1" connect="1" arrows="1" fold="1" page="1" pageScale="1" pageWidth="1169" pageHeight="827" math="0" shadow="0">
      <root>
        <mxCell id="0" />
        <mxCell id="1" parent="0" />
        <mxCell id="rHtf52YzwqfbL_oxPPr7-8" style="edgeStyle=orthogonalEdgeStyle;rounded=0;orthogonalLoop=1;jettySize=auto;html=1;" edge="1" parent="1" source="rHtf52YzwqfbL_oxPPr7-1" target="rHtf52YzwqfbL_oxPPr7-2">
          <mxGeometry relative="1" as="geometry" />
        </mxCell>
        <mxCell id="rHtf52YzwqfbL_oxPPr7-1" value="&lt;div&gt;SIEM Splunk&lt;/div&gt;" style="rounded=1;whiteSpace=wrap;html=1;fontSize=14;fillColor=#60a917;fontColor=#ffffff;strokeColor=#2D7600;" vertex="1" parent="1">
          <mxGeometry x="240" y="345" width="120" height="60" as="geometry" />
        </mxCell>
        <mxCell id="rHtf52YzwqfbL_oxPPr7-9" style="edgeStyle=orthogonalEdgeStyle;rounded=0;orthogonalLoop=1;jettySize=auto;html=1;entryX=0.5;entryY=1;entryDx=0;entryDy=0;" edge="1" parent="1" source="rHtf52YzwqfbL_oxPPr7-2" target="rHtf52YzwqfbL_oxPPr7-1">
          <mxGeometry relative="1" as="geometry" />
        </mxCell>
        <mxCell id="rHtf52YzwqfbL_oxPPr7-45" value="&lt;div&gt;Se generan&lt;/div&gt;&lt;div&gt;Notable Events&lt;/div&gt;" style="edgeLabel;html=1;align=center;verticalAlign=middle;resizable=0;points=[];" vertex="1" connectable="0" parent="rHtf52YzwqfbL_oxPPr7-9">
          <mxGeometry x="0.1214" y="-1" relative="1" as="geometry">
            <mxPoint y="-1" as="offset" />
          </mxGeometry>
        </mxCell>
        <mxCell id="rHtf52YzwqfbL_oxPPr7-2" value="&lt;div&gt;Splunk Enterprise Security&lt;/div&gt;" style="rounded=1;whiteSpace=wrap;html=1;fontSize=14;fillColor=#008a00;fontColor=#ffffff;strokeColor=#005700;" vertex="1" parent="1">
          <mxGeometry x="240" y="475" width="120" height="60" as="geometry" />
        </mxCell>
        <mxCell id="rHtf52YzwqfbL_oxPPr7-4" style="edgeStyle=orthogonalEdgeStyle;rounded=0;orthogonalLoop=1;jettySize=auto;html=1;entryX=1;entryY=0.5;entryDx=0;entryDy=0;" edge="1" parent="1">
          <mxGeometry relative="1" as="geometry">
            <mxPoint x="540" y="405.0000000000001" as="sourcePoint" />
            <mxPoint x="360" y="505" as="targetPoint" />
            <Array as="points">
              <mxPoint x="540" y="505" />
            </Array>
          </mxGeometry>
        </mxCell>
        <mxCell id="rHtf52YzwqfbL_oxPPr7-47" value="&lt;div&gt;Se consultan&lt;/div&gt;&lt;div&gt;campos relevantes&lt;/div&gt;&lt;div&gt;de las Alertas&lt;/div&gt;&lt;div&gt;como la Urgencia&lt;/div&gt;" style="edgeLabel;html=1;align=center;verticalAlign=middle;resizable=0;points=[];" vertex="1" connectable="0" parent="rHtf52YzwqfbL_oxPPr7-4">
          <mxGeometry x="0.2321" relative="1" as="geometry">
            <mxPoint as="offset" />
          </mxGeometry>
        </mxCell>
        <mxCell id="rHtf52YzwqfbL_oxPPr7-5" value="&lt;div&gt;Se obtiene la&lt;/div&gt;&lt;div&gt;Alerta para&lt;/div&gt;&lt;div&gt;ejecutar los&lt;/div&gt;&lt;div&gt;Playbooks&lt;/div&gt;&lt;div&gt;respectivos.&lt;br&gt;&lt;/div&gt;" style="edgeStyle=orthogonalEdgeStyle;rounded=0;orthogonalLoop=1;jettySize=auto;html=1;entryX=1;entryY=0.5;entryDx=0;entryDy=0;" edge="1" parent="1" source="rHtf52YzwqfbL_oxPPr7-3" target="rHtf52YzwqfbL_oxPPr7-1">
          <mxGeometry relative="1" as="geometry" />
        </mxCell>
        <mxCell id="rHtf52YzwqfbL_oxPPr7-7" style="edgeStyle=orthogonalEdgeStyle;rounded=0;orthogonalLoop=1;jettySize=auto;html=1;" edge="1" parent="1" source="rHtf52YzwqfbL_oxPPr7-3" target="rHtf52YzwqfbL_oxPPr7-6">
          <mxGeometry relative="1" as="geometry">
            <Array as="points">
              <mxPoint x="520" y="310" />
              <mxPoint x="520" y="310" />
            </Array>
          </mxGeometry>
        </mxCell>
        <mxCell id="rHtf52YzwqfbL_oxPPr7-46" value="Se consulta información del CDU" style="edgeLabel;html=1;align=center;verticalAlign=middle;resizable=0;points=[];" vertex="1" connectable="0" parent="rHtf52YzwqfbL_oxPPr7-7">
          <mxGeometry x="-0.3071" relative="1" as="geometry">
            <mxPoint y="-12" as="offset" />
          </mxGeometry>
        </mxCell>
        <mxCell id="rHtf52YzwqfbL_oxPPr7-40" style="edgeStyle=orthogonalEdgeStyle;rounded=0;orthogonalLoop=1;jettySize=auto;html=1;" edge="1" parent="1" source="rHtf52YzwqfbL_oxPPr7-3" target="rHtf52YzwqfbL_oxPPr7-29">
          <mxGeometry relative="1" as="geometry" />
        </mxCell>
        <mxCell id="rHtf52YzwqfbL_oxPPr7-60" value="&lt;div&gt;Se crea Ticket para&lt;/div&gt;&lt;div&gt;seguimiento Global&lt;br&gt;&lt;/div&gt;" style="edgeLabel;html=1;align=center;verticalAlign=middle;resizable=0;points=[];" vertex="1" connectable="0" parent="rHtf52YzwqfbL_oxPPr7-40">
          <mxGeometry x="-0.3476" y="-1" relative="1" as="geometry">
            <mxPoint x="40" y="-1" as="offset" />
          </mxGeometry>
        </mxCell>
        <mxCell id="rHtf52YzwqfbL_oxPPr7-53" style="edgeStyle=orthogonalEdgeStyle;rounded=0;orthogonalLoop=1;jettySize=auto;html=1;entryX=0.5;entryY=0;entryDx=0;entryDy=0;" edge="1" parent="1" source="rHtf52YzwqfbL_oxPPr7-3" target="rHtf52YzwqfbL_oxPPr7-35">
          <mxGeometry relative="1" as="geometry">
            <Array as="points">
              <mxPoint x="570" y="590" />
            </Array>
          </mxGeometry>
        </mxCell>
        <mxCell id="rHtf52YzwqfbL_oxPPr7-55" value="&lt;div&gt;Se realiza&lt;/div&gt;&lt;div&gt;Seguimiento&amp;nbsp; a los&lt;/div&gt;&lt;div&gt;Tickets.&lt;br&gt;&lt;/div&gt;" style="edgeLabel;html=1;align=center;verticalAlign=middle;resizable=0;points=[];" vertex="1" connectable="0" parent="rHtf52YzwqfbL_oxPPr7-53">
          <mxGeometry x="0.4229" relative="1" as="geometry">
            <mxPoint y="15" as="offset" />
          </mxGeometry>
        </mxCell>
        <mxCell id="rHtf52YzwqfbL_oxPPr7-57" style="edgeStyle=orthogonalEdgeStyle;rounded=0;orthogonalLoop=1;jettySize=auto;html=1;entryX=0;entryY=0.3333333333333333;entryDx=0;entryDy=0;entryPerimeter=0;" edge="1" parent="1" source="rHtf52YzwqfbL_oxPPr7-3" target="rHtf52YzwqfbL_oxPPr7-67">
          <mxGeometry relative="1" as="geometry">
            <mxPoint x="800" y="460" as="targetPoint" />
            <Array as="points">
              <mxPoint x="610" y="460" />
              <mxPoint x="860" y="460" />
            </Array>
          </mxGeometry>
        </mxCell>
        <mxCell id="rHtf52YzwqfbL_oxPPr7-58" style="edgeStyle=orthogonalEdgeStyle;rounded=0;orthogonalLoop=1;jettySize=auto;html=1;entryX=0;entryY=0.5;entryDx=0;entryDy=0;" edge="1" parent="1" source="rHtf52YzwqfbL_oxPPr7-3" target="rHtf52YzwqfbL_oxPPr7-50">
          <mxGeometry relative="1" as="geometry">
            <Array as="points">
              <mxPoint x="610" y="520" />
              <mxPoint x="730" y="520" />
              <mxPoint x="730" y="650" />
            </Array>
          </mxGeometry>
        </mxCell>
        <mxCell id="rHtf52YzwqfbL_oxPPr7-3" value="&lt;div&gt;XSOAR&lt;/div&gt;" style="rounded=1;whiteSpace=wrap;html=1;fontSize=14;fillColor=#008a00;strokeColor=#005700;fontColor=#ffffff;" vertex="1" parent="1">
          <mxGeometry x="495" y="345" width="120" height="60" as="geometry" />
        </mxCell>
        <mxCell id="rHtf52YzwqfbL_oxPPr7-6" value="Catálogo de Casos de Uso" style="shape=cylinder3;whiteSpace=wrap;html=1;boundedLbl=1;backgroundOutline=1;size=15;fillColor=#1ba1e2;fontColor=#ffffff;strokeColor=#006EAF;" vertex="1" parent="1">
          <mxGeometry x="480" y="150" width="80" height="110" as="geometry" />
        </mxCell>
        <mxCell id="rHtf52YzwqfbL_oxPPr7-42" style="edgeStyle=orthogonalEdgeStyle;rounded=0;orthogonalLoop=1;jettySize=auto;html=1;entryX=0.5;entryY=0;entryDx=0;entryDy=0;" edge="1" parent="1" source="rHtf52YzwqfbL_oxPPr7-12" target="rHtf52YzwqfbL_oxPPr7-1">
          <mxGeometry relative="1" as="geometry" />
        </mxCell>
        <mxCell id="rHtf52YzwqfbL_oxPPr7-43" value="&lt;div&gt;Fuentes envían Eventos &lt;br&gt;&lt;/div&gt;&lt;div&gt;y se correlacionan los datos&lt;/div&gt;&lt;div&gt;para generar Alertas&lt;br&gt;&lt;/div&gt;" style="edgeLabel;html=1;align=center;verticalAlign=middle;resizable=0;points=[];" vertex="1" connectable="0" parent="rHtf52YzwqfbL_oxPPr7-42">
          <mxGeometry x="-0.18" relative="1" as="geometry">
            <mxPoint y="-1" as="offset" />
          </mxGeometry>
        </mxCell>
        <mxCell id="rHtf52YzwqfbL_oxPPr7-12" value="" style="rounded=0;whiteSpace=wrap;html=1;fillColor=#f0a30a;fontColor=#000000;strokeColor=#BD7000;" vertex="1" parent="1">
          <mxGeometry x="240" y="20" width="120" height="250" as="geometry" />
        </mxCell>
        <mxCell id="rHtf52YzwqfbL_oxPPr7-13" value="ATP" style="rounded=0;whiteSpace=wrap;html=1;" vertex="1" parent="1">
          <mxGeometry x="270" y="120" width="60" height="20" as="geometry" />
        </mxCell>
        <mxCell id="rHtf52YzwqfbL_oxPPr7-14" value="&lt;div&gt;Sentinel&lt;/div&gt;" style="rounded=0;whiteSpace=wrap;html=1;" vertex="1" parent="1">
          <mxGeometry x="270" y="100" width="60" height="20" as="geometry" />
        </mxCell>
        <mxCell id="rHtf52YzwqfbL_oxPPr7-15" value="&lt;div&gt;Firewall&lt;/div&gt;" style="rounded=0;whiteSpace=wrap;html=1;" vertex="1" parent="1">
          <mxGeometry x="270" y="80" width="60" height="20" as="geometry" />
        </mxCell>
        <mxCell id="rHtf52YzwqfbL_oxPPr7-16" value="&lt;div&gt;Checkpoint&lt;/div&gt;" style="rounded=0;whiteSpace=wrap;html=1;" vertex="1" parent="1">
          <mxGeometry x="260" y="60" width="80" height="20" as="geometry" />
        </mxCell>
        <mxCell id="rHtf52YzwqfbL_oxPPr7-17" value="&lt;div&gt;Nozomi&lt;/div&gt;" style="rounded=0;whiteSpace=wrap;html=1;" vertex="1" parent="1">
          <mxGeometry x="270" y="140" width="60" height="20" as="geometry" />
        </mxCell>
        <mxCell id="rHtf52YzwqfbL_oxPPr7-18" value="O365" style="rounded=0;whiteSpace=wrap;html=1;" vertex="1" parent="1">
          <mxGeometry x="270" y="160" width="60" height="20" as="geometry" />
        </mxCell>
        <mxCell id="rHtf52YzwqfbL_oxPPr7-19" value="Tenable.ad" style="rounded=0;whiteSpace=wrap;html=1;" vertex="1" parent="1">
          <mxGeometry x="260" y="180" width="80" height="20" as="geometry" />
        </mxCell>
        <mxCell id="rHtf52YzwqfbL_oxPPr7-24" value="&lt;div style=&quot;font-size: 15px;&quot;&gt;.&lt;/div&gt;&lt;div style=&quot;font-size: 15px;&quot;&gt;.&lt;/div&gt;&lt;div style=&quot;font-size: 15px;&quot;&gt;.&lt;br style=&quot;font-size: 15px;&quot;&gt;&lt;/div&gt;" style="text;html=1;strokeColor=none;fillColor=none;align=center;verticalAlign=middle;whiteSpace=wrap;rounded=0;fontSize=15;fontStyle=1" vertex="1" parent="1">
          <mxGeometry x="270" y="210" width="60" height="40" as="geometry" />
        </mxCell>
        <mxCell id="rHtf52YzwqfbL_oxPPr7-25" value="&lt;div&gt;FUENTES&lt;/div&gt;" style="text;html=1;strokeColor=none;fillColor=none;align=center;verticalAlign=middle;whiteSpace=wrap;rounded=0;" vertex="1" parent="1">
          <mxGeometry x="270" y="30" width="60" height="30" as="geometry" />
        </mxCell>
        <mxCell id="rHtf52YzwqfbL_oxPPr7-65" style="edgeStyle=orthogonalEdgeStyle;rounded=0;orthogonalLoop=1;jettySize=auto;html=1;" edge="1" parent="1" source="rHtf52YzwqfbL_oxPPr7-29" target="rHtf52YzwqfbL_oxPPr7-64">
          <mxGeometry relative="1" as="geometry" />
        </mxCell>
        <mxCell id="rHtf52YzwqfbL_oxPPr7-66" value="&lt;div&gt;Se escala Ticket a &lt;br&gt;&lt;/div&gt;&lt;div&gt;Remedy On Demand&lt;br&gt;&lt;/div&gt;" style="edgeLabel;html=1;align=center;verticalAlign=middle;resizable=0;points=[];" vertex="1" connectable="0" parent="rHtf52YzwqfbL_oxPPr7-65">
          <mxGeometry x="0.1214" relative="1" as="geometry">
            <mxPoint y="-1" as="offset" />
          </mxGeometry>
        </mxCell>
        <mxCell id="rHtf52YzwqfbL_oxPPr7-29" value="&lt;div&gt;SANDAS&lt;/div&gt;&lt;div&gt;Telefonica&lt;/div&gt;" style="rounded=1;whiteSpace=wrap;html=1;fontSize=14;fillColor=#6a00ff;fontColor=#ffffff;strokeColor=#3700CC;" vertex="1" parent="1">
          <mxGeometry x="670" y="230" width="120" height="60" as="geometry" />
        </mxCell>
        <mxCell id="rHtf52YzwqfbL_oxPPr7-34" value="&lt;div&gt;Se Analiza la Alerta&lt;/div&gt;" style="edgeStyle=orthogonalEdgeStyle;rounded=0;orthogonalLoop=1;jettySize=auto;html=1;entryX=0.5;entryY=1;entryDx=0;entryDy=0;" edge="1" parent="1" source="rHtf52YzwqfbL_oxPPr7-33" target="rHtf52YzwqfbL_oxPPr7-2">
          <mxGeometry relative="1" as="geometry">
            <Array as="points">
              <mxPoint x="300" y="600" />
              <mxPoint x="300" y="600" />
            </Array>
          </mxGeometry>
        </mxCell>
        <mxCell id="rHtf52YzwqfbL_oxPPr7-37" style="edgeStyle=orthogonalEdgeStyle;rounded=0;orthogonalLoop=1;jettySize=auto;html=1;" edge="1" parent="1" source="rHtf52YzwqfbL_oxPPr7-33" target="rHtf52YzwqfbL_oxPPr7-35">
          <mxGeometry relative="1" as="geometry">
            <Array as="points">
              <mxPoint x="584" y="670" />
            </Array>
          </mxGeometry>
        </mxCell>
        <mxCell id="rHtf52YzwqfbL_oxPPr7-54" value="&lt;div&gt;Se escalan las &lt;br&gt;&lt;/div&gt;&lt;div&gt;recomendaciones a&lt;/div&gt;&lt;div&gt;los Grupos Resolutores&lt;br&gt;&lt;/div&gt;" style="edgeLabel;html=1;align=center;verticalAlign=middle;resizable=0;points=[];" vertex="1" connectable="0" parent="rHtf52YzwqfbL_oxPPr7-37">
          <mxGeometry x="0.0526" y="-2" relative="1" as="geometry">
            <mxPoint x="-7" y="-2" as="offset" />
          </mxGeometry>
        </mxCell>
        <mxCell id="rHtf52YzwqfbL_oxPPr7-61" style="edgeStyle=orthogonalEdgeStyle;rounded=0;orthogonalLoop=1;jettySize=auto;html=1;entryX=0.5;entryY=1;entryDx=0;entryDy=0;" edge="1" parent="1" target="rHtf52YzwqfbL_oxPPr7-50">
          <mxGeometry relative="1" as="geometry">
            <mxPoint x="320" y="710" as="sourcePoint" />
            <Array as="points">
              <mxPoint x="320" y="710" />
              <mxPoint x="320" y="750" />
              <mxPoint x="885" y="750" />
            </Array>
          </mxGeometry>
        </mxCell>
        <mxCell id="rHtf52YzwqfbL_oxPPr7-62" value="&lt;div&gt;Se adjunta investigación&lt;/div&gt;&lt;div&gt;sobre la Alerta al Cliente&lt;br&gt;&lt;/div&gt;" style="edgeLabel;html=1;align=center;verticalAlign=middle;resizable=0;points=[];" vertex="1" connectable="0" parent="rHtf52YzwqfbL_oxPPr7-61">
          <mxGeometry x="-0.0445" y="1" relative="1" as="geometry">
            <mxPoint as="offset" />
          </mxGeometry>
        </mxCell>
        <mxCell id="rHtf52YzwqfbL_oxPPr7-70" style="edgeStyle=orthogonalEdgeStyle;rounded=0;orthogonalLoop=1;jettySize=auto;html=1;entryX=0;entryY=0.5;entryDx=0;entryDy=0;" edge="1" parent="1" source="rHtf52YzwqfbL_oxPPr7-33" target="rHtf52YzwqfbL_oxPPr7-2">
          <mxGeometry relative="1" as="geometry">
            <Array as="points">
              <mxPoint x="160" y="650" />
              <mxPoint x="160" y="505" />
            </Array>
          </mxGeometry>
        </mxCell>
        <mxCell id="rHtf52YzwqfbL_oxPPr7-71" value="&lt;div&gt;Se enriquece la&amp;nbsp;&lt;/div&gt;&lt;div&gt;investigación&lt;/div&gt;&lt;div&gt;en Enterprise Security&lt;br&gt;&lt;/div&gt;" style="edgeLabel;html=1;align=center;verticalAlign=middle;resizable=0;points=[];" vertex="1" connectable="0" parent="rHtf52YzwqfbL_oxPPr7-70">
          <mxGeometry x="0.1314" y="3" relative="1" as="geometry">
            <mxPoint as="offset" />
          </mxGeometry>
        </mxCell>
        <mxCell id="rHtf52YzwqfbL_oxPPr7-33" value="&lt;div style=&quot;font-size: 14px;&quot;&gt;Analista 8/5&lt;br&gt;&lt;/div&gt;" style="shape=umlActor;verticalLabelPosition=bottom;verticalAlign=top;html=1;outlineConnect=0;fontSize=14;fillColor=#e51400;fontColor=#ffffff;strokeColor=#B20000;" vertex="1" parent="1">
          <mxGeometry x="285" y="620" width="30" height="60" as="geometry" />
        </mxCell>
        <mxCell id="rHtf52YzwqfbL_oxPPr7-35" value="&lt;div&gt;Service Desk&lt;/div&gt;&lt;div&gt;Ecopetrol&lt;br&gt;&lt;/div&gt;" style="rounded=1;whiteSpace=wrap;html=1;fontSize=14;fillColor=#0050ef;fontColor=#ffffff;strokeColor=#001DBC;" vertex="1" parent="1">
          <mxGeometry x="510" y="610" width="120" height="60" as="geometry" />
        </mxCell>
        <mxCell id="rHtf52YzwqfbL_oxPPr7-50" value="&lt;div&gt;Cliente&lt;br&gt;&lt;/div&gt;&lt;div&gt;Filial de Grupo&lt;/div&gt;&lt;div&gt;Ecopetrol&lt;br&gt;&lt;/div&gt;" style="rounded=1;whiteSpace=wrap;html=1;fontSize=14;fillColor=#6a00ff;fontColor=#ffffff;strokeColor=#3700CC;" vertex="1" parent="1">
          <mxGeometry x="825" y="620" width="120" height="60" as="geometry" />
        </mxCell>
        <mxCell id="rHtf52YzwqfbL_oxPPr7-59" value="Se notifica por Correo la Alerta" style="text;html=1;strokeColor=none;fillColor=none;align=center;verticalAlign=middle;whiteSpace=wrap;rounded=0;" vertex="1" parent="1">
          <mxGeometry x="640" y="474" width="110" height="30" as="geometry" />
        </mxCell>
        <mxCell id="rHtf52YzwqfbL_oxPPr7-73" style="edgeStyle=orthogonalEdgeStyle;rounded=0;orthogonalLoop=1;jettySize=auto;html=1;entryX=0.5;entryY=0;entryDx=0;entryDy=0;entryPerimeter=0;" edge="1" parent="1" source="rHtf52YzwqfbL_oxPPr7-64" target="rHtf52YzwqfbL_oxPPr7-67">
          <mxGeometry relative="1" as="geometry" />
        </mxCell>
        <mxCell id="rHtf52YzwqfbL_oxPPr7-86" value="Se" style="edgeLabel;html=1;align=center;verticalAlign=middle;resizable=0;points=[];" vertex="1" connectable="0" parent="rHtf52YzwqfbL_oxPPr7-73">
          <mxGeometry x="0.2383" y="3" relative="1" as="geometry">
            <mxPoint x="-1" as="offset" />
          </mxGeometry>
        </mxCell>
        <mxCell id="rHtf52YzwqfbL_oxPPr7-64" value="&lt;div&gt;RoD&lt;br&gt;&lt;/div&gt;&lt;div&gt;Telefonica&lt;/div&gt;" style="rounded=1;whiteSpace=wrap;html=1;fontSize=14;fillColor=#6a00ff;fontColor=#ffffff;strokeColor=#3700CC;" vertex="1" parent="1">
          <mxGeometry x="670" y="100" width="120" height="60" as="geometry" />
        </mxCell>
        <mxCell id="rHtf52YzwqfbL_oxPPr7-78" style="edgeStyle=orthogonalEdgeStyle;rounded=0;orthogonalLoop=1;jettySize=auto;html=1;entryX=0.5;entryY=0;entryDx=0;entryDy=0;" edge="1" parent="1">
          <mxGeometry relative="1" as="geometry">
            <mxPoint x="883" y="530" as="sourcePoint" />
            <mxPoint x="883" y="620" as="targetPoint" />
          </mxGeometry>
        </mxCell>
        <mxCell id="rHtf52YzwqfbL_oxPPr7-81" value="&lt;div&gt;Se adjunta investigación&lt;/div&gt;&lt;div&gt;sobre la Alerta al Cliente&lt;br&gt;&lt;/div&gt;" style="edgeLabel;html=1;align=center;verticalAlign=middle;resizable=0;points=[];" vertex="1" connectable="0" parent="rHtf52YzwqfbL_oxPPr7-78">
          <mxGeometry x="-0.0944" y="1" relative="1" as="geometry">
            <mxPoint y="-1" as="offset" />
          </mxGeometry>
        </mxCell>
        <mxCell id="rHtf52YzwqfbL_oxPPr7-82" style="edgeStyle=orthogonalEdgeStyle;rounded=0;orthogonalLoop=1;jettySize=auto;html=1;" edge="1" parent="1" source="rHtf52YzwqfbL_oxPPr7-67">
          <mxGeometry relative="1" as="geometry">
            <mxPoint x="280" y="710" as="targetPoint" />
            <Array as="points">
              <mxPoint x="1010" y="470" />
              <mxPoint x="1010" y="810" />
              <mxPoint x="280" y="810" />
            </Array>
          </mxGeometry>
        </mxCell>
        <mxCell id="rHtf52YzwqfbL_oxPPr7-85" value="&lt;div&gt;Se adjunta investigación&lt;/div&gt;&lt;div&gt;sobre la Alerta al Analista 8/5&lt;br&gt;&lt;/div&gt;" style="edgeLabel;html=1;align=center;verticalAlign=middle;resizable=0;points=[];" vertex="1" connectable="0" parent="rHtf52YzwqfbL_oxPPr7-82">
          <mxGeometry x="0.286" y="-1" relative="1" as="geometry">
            <mxPoint as="offset" />
          </mxGeometry>
        </mxCell>
        <mxCell id="rHtf52YzwqfbL_oxPPr7-87" style="edgeStyle=orthogonalEdgeStyle;rounded=0;orthogonalLoop=1;jettySize=auto;html=1;entryX=1;entryY=0.5;entryDx=0;entryDy=0;" edge="1" parent="1" source="rHtf52YzwqfbL_oxPPr7-67" target="rHtf52YzwqfbL_oxPPr7-64">
          <mxGeometry relative="1" as="geometry">
            <Array as="points">
              <mxPoint x="885" y="130" />
            </Array>
          </mxGeometry>
        </mxCell>
        <mxCell id="rHtf52YzwqfbL_oxPPr7-88" value="&lt;div&gt;Se da gestión a &lt;br&gt;&lt;/div&gt;&lt;div&gt;los Ticket de las Alertas&lt;br&gt;&lt;/div&gt;" style="edgeLabel;html=1;align=center;verticalAlign=middle;resizable=0;points=[];" vertex="1" connectable="0" parent="rHtf52YzwqfbL_oxPPr7-87">
          <mxGeometry x="-0.2568" y="-5" relative="1" as="geometry">
            <mxPoint x="-5" y="-1" as="offset" />
          </mxGeometry>
        </mxCell>
        <mxCell id="rHtf52YzwqfbL_oxPPr7-67" value="&lt;div style=&quot;font-size: 14px;&quot;&gt;Analista 24/7&lt;br&gt;&lt;/div&gt;" style="shape=umlActor;verticalLabelPosition=bottom;verticalAlign=top;html=1;outlineConnect=0;fontSize=14;fillColor=#e51400;fontColor=#ffffff;strokeColor=#B20000;" vertex="1" parent="1">
          <mxGeometry x="870" y="440" width="30" height="60" as="geometry" />
        </mxCell>
        <mxCell id="rHtf52YzwqfbL_oxPPr7-89" value="1" style="ellipse;whiteSpace=wrap;html=1;aspect=fixed;fillColor=#a20025;fontColor=#ffffff;strokeColor=#6F0000;fontSize=19;" vertex="1" parent="1">
          <mxGeometry x="340" y="120" width="40" height="40" as="geometry" />
        </mxCell>
        <mxCell id="rHtf52YzwqfbL_oxPPr7-90" value="2" style="ellipse;whiteSpace=wrap;html=1;aspect=fixed;fillColor=#a20025;fontColor=#ffffff;strokeColor=#6F0000;fontSize=19;" vertex="1" parent="1">
          <mxGeometry x="210" y="355" width="40" height="40" as="geometry" />
        </mxCell>
        <mxCell id="rHtf52YzwqfbL_oxPPr7-92" value="&lt;div&gt;3&lt;/div&gt;" style="ellipse;whiteSpace=wrap;html=1;aspect=fixed;fillColor=#a20025;fontColor=#ffffff;strokeColor=#6F0000;fontSize=19;" vertex="1" parent="1">
          <mxGeometry x="330" y="510" width="40" height="40" as="geometry" />
        </mxCell>
        <mxCell id="rHtf52YzwqfbL_oxPPr7-93" value="3" style="ellipse;whiteSpace=wrap;html=1;aspect=fixed;fillColor=#a20025;fontColor=#ffffff;strokeColor=#6F0000;fontSize=19;" vertex="1" parent="1">
          <mxGeometry x="584" y="330" width="40" height="40" as="geometry" />
        </mxCell>
        <mxCell id="rHtf52YzwqfbL_oxPPr7-94" value="&lt;div&gt;4&lt;/div&gt;" style="ellipse;whiteSpace=wrap;html=1;aspect=fixed;fillColor=#a20025;fontColor=#ffffff;strokeColor=#6F0000;fontSize=19;" vertex="1" parent="1">
          <mxGeometry x="544" y="150" width="40" height="40" as="geometry" />
        </mxCell>
        <mxCell id="rHtf52YzwqfbL_oxPPr7-95" value="&lt;div&gt;4&lt;/div&gt;" style="ellipse;whiteSpace=wrap;html=1;aspect=fixed;fillColor=#a20025;fontColor=#ffffff;strokeColor=#6F0000;fontSize=19;" vertex="1" parent="1">
          <mxGeometry x="760" y="270" width="40" height="40" as="geometry" />
        </mxCell>
        <mxCell id="rHtf52YzwqfbL_oxPPr7-97" value="&lt;div&gt;4&lt;/div&gt;" style="ellipse;whiteSpace=wrap;html=1;aspect=fixed;fillColor=#a20025;fontColor=#ffffff;strokeColor=#6F0000;fontSize=19;" vertex="1" parent="1">
          <mxGeometry x="760" y="504" width="40" height="40" as="geometry" />
        </mxCell>
        <mxCell id="rHtf52YzwqfbL_oxPPr7-102" value="&lt;div&gt;4&lt;/div&gt;" style="ellipse;whiteSpace=wrap;html=1;aspect=fixed;fillColor=#a20025;fontColor=#ffffff;strokeColor=#6F0000;fontSize=19;" vertex="1" parent="1">
          <mxGeometry x="675" y="710" width="40" height="40" as="geometry" />
        </mxCell>
        <mxCell id="rHtf52YzwqfbL_oxPPr7-103" value="5" style="ellipse;whiteSpace=wrap;html=1;aspect=fixed;fillColor=#a20025;fontColor=#ffffff;strokeColor=#6F0000;fontSize=19;" vertex="1" parent="1">
          <mxGeometry x="490" y="590" width="40" height="40" as="geometry" />
        </mxCell>
        <mxCell id="rHtf52YzwqfbL_oxPPr7-104" value="5" style="ellipse;whiteSpace=wrap;html=1;aspect=fixed;fillColor=#a20025;fontColor=#ffffff;strokeColor=#6F0000;fontSize=19;" vertex="1" parent="1">
          <mxGeometry x="650" y="90" width="40" height="40" as="geometry" />
        </mxCell>
        <mxCell id="rHtf52YzwqfbL_oxPPr7-107" value="6" style="ellipse;whiteSpace=wrap;html=1;aspect=fixed;fillColor=#a20025;fontColor=#ffffff;strokeColor=#6F0000;fontSize=19;" vertex="1" parent="1">
          <mxGeometry x="945" y="500" width="40" height="40" as="geometry" />
        </mxCell>
        <mxCell id="rHtf52YzwqfbL_oxPPr7-108" value="6" style="ellipse;whiteSpace=wrap;html=1;aspect=fixed;fillColor=#a20025;fontColor=#ffffff;strokeColor=#6F0000;fontSize=19;" vertex="1" parent="1">
          <mxGeometry x="110" y="504" width="40" height="40" as="geometry" />
        </mxCell>
        <mxCell id="rHtf52YzwqfbL_oxPPr7-115" value="&lt;b&gt;&lt;font style=&quot;font-size: 17px;&quot;&gt;Diagrama de Flujo: Servicio de Monitorización Grupo Ecopetrol&lt;/font&gt;&lt;/b&gt;" style="text;html=1;strokeColor=none;fillColor=none;align=center;verticalAlign=middle;whiteSpace=wrap;rounded=0;" vertex="1" parent="1">
          <mxGeometry x="414" y="40" width="226" height="30" as="geometry" />
        </mxCell>
      </root>
    </mxGraphModel>
  </diagram>
</mxfile>
